<svg xmlns="http://www.w3.org/2000/svg" width="1233.78" height="121.49" viewBox="0 0 1233.78 121.49"><title>unhck-kh</title><path d="M71.27,84.31c1.38,0,1.2-.79,1.2-2.26V74.94c0-1.48-.14-2,.7-2,2.93,0,3.73-.26,3.73-2.88V43.64c0-7.2-5.09-6-6.53-8.64-2-3.57,3.81-3.57,1.69-11.28-.54-1.75-1.91-2.84-4.55-2.84S63.49,22,63,23.72c-2.13,7.71,3.73,7.71,1.68,11.28-1.44,2.63-6.52,1.44-6.52,8.64V70.11c0,2.62.79,2.88,3.73,2.88.83,0,.69.47.69,2v7.11c0,1.47-.17,2.26,1.22,2.26Z" fill="#0072bb" fill-rule="evenodd"/><path d="M48.09,26.89c-2.6,2.77-6.71,9.23-4,14.61,5.46,2.1,5-17.3,11.84-17,3.37,3.11-1,12.26-2.35,16.3-1.68,5-3,15.37-6.21,20.4-2.68,4.2-.67,17.39-1.52,21.92-2.26,2.27-8.4.67-11,.25,0-5.2-.68-9.31-1.52-17.63-.08-1.68-1.85-27.38-.42-30.49,2.94-6.46,19-18.81,21.17-21.16C56,12,62.78,5.05,65.39,5.05c1.85,1.26.76,4.2.34,5.37-2.6,6.47-13.86,12.85-17.64,16.47Z" fill="#0072bb" fill-rule="evenodd"/><path d="M87.23,26.89c2.51,2.77,6.63,9.23,4,14.61-5.54,2.1-5.12-17.3-11.92-17-3.28,3.11,1.08,12.26,2.43,16.3,1.68,5,3,15.37,6.21,20.4,2.61,4.2.67,17.39,1.43,21.92,2.35,2.27,8.4.67,11.08.25,0-5.2.6-9.31,1.43-17.63.17-1.68,1.94-27.38.51-30.49-2.94-6.46-19-18.81-21.16-21.16-2-2.1-8.74-9.07-11.34-9.07-1.94,1.26-.76,4.2-.34,5.37,2.61,6.47,13.86,12.85,17.64,16.47Z" fill="#0072bb" fill-rule="evenodd"/><path d="M24.77,18.18c-1.44,1.34-4.64,2.27-6.83,5.21-.83-1.6,1.35-5.46,4-7.74,1.94-1.6,5.72-4.21,6.81-4.46.85,1.94-2.18,4.88-3.94,7Z" fill="#0072bb" fill-rule="evenodd"/><path d="M20.31,28.69c-2.45,2.28-5,3.2-8.42,7.33a24.84,24.84,0,0,1-.43-12.29c1.19-3.87,3.12-8.16,6.4-9.51a36.61,36.61,0,0,0-2,9.34c-1.43,5.64-2.27,5.81-1.93,6.57.33,0,2.18-2.95,4.46-5.22,2.69-2.69,6.05-3.29,8.24-4.88-.33,1.09-2.27,4.54-6.3,8.66Z" fill="#0072bb" fill-rule="evenodd"/><path d="M8.43,52c-3.27-5.9-3.61-10.19-3.86-15.15.17-3.46,1.84-11.45,4.37-12.62-.76,7.23,1.18,7.91.42,13.88,0,.33-.84,6.56-.84,6.9,1-.17.08-5.73,11.61-13.71-2.52,4.37-1.35,5.72-5.89,11.52C8.94,48.05,8.18,53.18,8.43,52Z" fill="#0072bb" fill-rule="evenodd"/><path d="M13.07,57.56c-2.45,3.53-2,5.3-2.61,7C4.65,61.18-1.91,47.8.52,41.15,2,46.2,4.14,47.29,5.66,51.5c2.61,6.31,2.19,8.25,3.87,9.68-.34-3.28.76-7.16,1.85-10,1.61-2.43,2.86-5.64,4-6.73,1.26,4.63.34,8.42-2.35,13.13Z" fill="#0072bb" fill-rule="evenodd"/><path d="M18.28,69c0,5.14-.93,7.41-1.34,11.19C6.92,76.91,1.7,65.47,1.7,59.83c3,6.9,7.49,6.82,13.3,16.58.5-3.7-1-.93-1.18-7.91.17-7.32,1.68-7.58,1.94-12.11,1.85,2,2.52,10.09,2.52,12.61Z" fill="#0072bb" fill-rule="evenodd"/><path d="M26.61,83.56c.76,3.79,1.1,8.25,1.69,11.53-5.73-2.1-7.16-.51-14-4.79C11.22,88.61,5.66,81.54,6,76.49c6.73,7.49,7.91,6.65,11.19,9.43,3,2.44,5.46,6.06,7.66,5.55.16-2-5-6.39-4.3-19,1.35,1.42,5.05,7.15,6.06,11.1Z" fill="#0072bb" fill-rule="evenodd"/><path d="M38,93c1.77,2.52,1.35,3.61,5.89,8.83A49.34,49.34,0,0,1,32,104.18c-2.86,0-13-2.69-16.32-9.6,5.79,3.12,5.88,2.36,13.63,4,5.55,1.26,9.5,3,11,2.86-.34-.76-4.63-2.53-7.57-6.23-2.95-4-2.28-8.41-4.89-11.7,1.77-.5,8.67,7.58,10.1,9.43Z" fill="#0072bb" fill-rule="evenodd"/><path d="M110.08,18.18c1.35,1.34,4.64,2.27,6.74,5.21.92-1.6-1.34-5.46-3.95-7.74-1.85-1.6-5.64-4.21-6.82-4.46-.84,1.94,2.18,4.88,4,7Z" fill="#0072bb" fill-rule="evenodd"/><path d="M114.55,28.69c2.35,2.28,5,3.2,8.33,7.33a24.82,24.82,0,0,0,.42-12.29c-1.09-3.87-3.11-8.16-6.4-9.51a33.1,33.1,0,0,1,2,9.34c1.43,5.64,2.28,5.81,1.94,6.57-.34,0-2.19-2.95-4.46-5.22-2.61-2.69-6-3.29-8.25-4.88.34,1.09,2.36,4.54,6.4,8.66Z" fill="#0072bb" fill-rule="evenodd"/><path d="M126.33,52c3.36-5.9,3.61-10.19,3.87-15.15-.17-3.46-1.85-11.45-4.29-12.62.67,7.23-1.26,7.91-.43,13.88,0,.33.77,6.56.77,6.9-.93-.17-.09-5.73-11.53-13.71,2.44,4.37,1.25,5.72,5.8,11.52,5.39,5.22,6.06,10.35,5.81,9.18Z" fill="#0072bb" fill-rule="evenodd"/><path d="M121.79,57.56c2.35,3.53,1.93,5.3,2.52,7,5.81-3.36,12.45-16.74,9.93-23.39-1.43,5.05-3.62,6.14-5.05,10.35-2.69,6.31-2.27,8.25-3.87,9.68.34-3.28-.84-7.16-1.93-10-1.52-2.43-2.87-5.64-4-6.73-1.18,4.63-.33,8.42,2.45,13.13Z" fill="#0072bb" fill-rule="evenodd"/><path d="M116.48,69c0,5.14,1,7.41,1.43,11.19,9.93-3.28,15.24-14.72,15.24-20.36-3.12,6.9-7.49,6.82-13.38,16.58-.51-3.7,1-.93,1.18-7.91-.18-7.32-1.69-7.58-1.94-12.11-1.85,2-2.53,10.09-2.53,12.61Z" fill="#0072bb" fill-rule="evenodd"/><path d="M108.15,83.56c-.76,3.79-1,8.25-1.59,11.53,5.63-2.1,7.06-.51,13.88-4.79,3.11-1.69,8.75-8.76,8.41-13.81-6.73,7.49-8,6.65-11.19,9.43-3,2.44-5.55,6.06-7.74,5.55-.17-2,5-6.39,4.38-19a33.52,33.52,0,0,0-6.15,11.1Z" fill="#0072bb" fill-rule="evenodd"/><path d="M96.79,93c-1.68,2.52-1.26,3.61-5.89,8.83a50.31,50.31,0,0,0,11.95,2.36c2.78,0,12.88-2.69,16.23-9.6-5.8,3.12-5.88,2.36-13.62,4-5.56,1.26-9.43,3-11,2.86.33-.76,4.71-2.53,7.57-6.23,2.94-4,2.27-8.41,5-11.7-1.85-.5-8.74,7.58-10.18,9.43Z" fill="#0072bb" fill-rule="evenodd"/><path d="M53,116.72l-1.69-.84s10.7-13,29-12,17.08,5.3,26.92,4.63c1.1-.08-.84,1.35-.84,1.35A33.93,33.93,0,0,1,85,109.48c-11.79-4-19.45-6.48-32,7.24Z" fill="#0072bb" fill-rule="evenodd"/><path d="M82.07,116.72l1.69-.84a36.71,36.71,0,0,0-29-12c-18.42,1-17.17,5.3-27,4.63-1.09-.08.84,1.35.84,1.35a34,34,0,0,0,21.46-.34c11.86-4,19.52-6.48,32,7.24Z" fill="#0072bb" fill-rule="evenodd"/><polygon points="165.94 98.21 159.54 98.21 159.54 94.26 177.04 94.26 177.04 98.21 170.64 98.21 170.64 115.62 165.94 115.62 165.94 98.21 165.94 98.21" fill="#0072bb" fill-rule="evenodd"/><path d="M178.5,94.26h4.25v8h.09a5.42,5.42,0,0,1,4.52-2.57c4.52,0,5.65,2.54,5.65,6.37v9.51h-4.25v-8.73c0-2.54-.74-3.8-2.72-3.8-2.3,0-3.29,1.28-3.29,4.43v8.1H178.5V94.26Z" fill="#0072bb" fill-rule="evenodd"/><path d="M199.08,108.92c.12,2.69,1.44,3.92,3.8,3.92a3.5,3.5,0,0,0,3.35-2H210a7,7,0,0,1-7.24,5.21c-4.87,0-7.9-3.36-7.9-8.14s3.21-8.17,7.9-8.17c5.27,0,7.81,4.42,7.51,9.18Zm6.92-2.69c-.39-2.15-1.32-3.29-3.39-3.29a3.35,3.35,0,0,0-3.53,3.29Z" fill="#0072bb" fill-rule="evenodd"/><path d="M237.5,107.55c0,5.77-3.42,8.58-9.13,8.58s-9.1-2.78-9.1-8.58V94.26H224v13.29c0,2.33.6,4.63,4.4,4.63,3.35,0,4.43-1.46,4.43-4.63V94.26h4.7v13.29Z" fill="#0072bb" fill-rule="evenodd"/><polygon points="240.63 94.26 245.3 94.26 254.22 108.59 254.28 108.59 254.28 94.26 258.68 94.26 258.68 115.62 253.98 115.62 245.09 101.33 245.03 101.33 245.03 115.62 240.63 115.62 240.63 94.26 240.63 94.26" fill="#0072bb" fill-rule="evenodd"/><path d="M272.94,97.91h5.15c2.09,0,3.23.9,3.23,3s-1.14,3.06-3.23,3.06h-5.15v-6Zm-4.7,17.71h4.7v-8.34h4.7c2.36,0,3.23,1,3.56,3.23.24,1.7.18,3.77.75,5.11h4.69c-.83-1.19-.8-3.71-.89-5.05-.15-2.15-.81-4.4-3.12-5v-.06a5.25,5.25,0,0,0,3.39-5.35,5.88,5.88,0,0,0-6.26-5.9H268.24v21.36Z" fill="#0072bb" fill-rule="evenodd"/><path d="M292.36,106.23a3.34,3.34,0,0,1,3.53-3.29c2.06,0,3,1.14,3.38,3.29Zm11.15,2.69c.31-4.76-2.24-9.18-7.5-9.18-4.7,0-7.9,3.53-7.9,8.17s3,8.14,7.9,8.14a7,7,0,0,0,7.24-5.21h-3.74a3.51,3.51,0,0,1-3.35,2c-2.37,0-3.68-1.23-3.8-3.92Z" fill="#0072bb" fill-rule="evenodd"/><path d="M306.42,103h-2.55v-2.84h2.55V99c0-2.72,1.7-4.7,5.17-4.7.75,0,1.53.09,2.25.13v3.16c-.51,0-1-.08-1.56-.08-1.13,0-1.61.47-1.61,1.76v.93h2.93V103h-2.93v12.62h-4.25V103Z" fill="#0072bb" fill-rule="evenodd"/><path d="M329.42,115.62h-4v-2.15h-.09a5.53,5.53,0,0,1-4.72,2.58c-4.52,0-5.66-2.55-5.66-6.38v-9.51h4.25v8.73c0,2.55.75,3.8,2.72,3.8,2.3,0,3.29-1.29,3.29-4.43v-8.1h4.25v15.46Z" fill="#0072bb" fill-rule="evenodd"/><path d="M339.2,112c-2.6,0-3.44-2.42-3.44-4.64s1.05-4.39,3.44-4.39c2.76,0,3.62,2.24,3.62,4.76,0,2.21-1.19,4.27-3.62,4.27Zm7.66-11.81h-4v2.06h-.06a4.81,4.81,0,0,0-4.6-2.48c-4.34,0-6.64,3.65-6.64,7.66,0,4.24,2,7.78,6.61,7.78a5.22,5.22,0,0,0,4.63-2.4h.06v2c0,2.22-1.05,3.83-3.41,3.83-1.49,0-2.78-.53-3.17-2.12H332c.21,3.53,3.77,5,6.82,5,7.12,0,8-4.31,8-6.85V100.16Z" fill="#0072bb" fill-rule="evenodd"/><path d="M353.23,106.23a3.35,3.35,0,0,1,3.53-3.29c2.07,0,3,1.14,3.38,3.29Zm11.16,2.69c.3-4.76-2.24-9.18-7.51-9.18-4.69,0-7.9,3.53-7.9,8.17s3,8.14,7.9,8.14a7,7,0,0,0,7.24-5.21h-3.74a3.5,3.5,0,0,1-3.35,2c-2.36,0-3.68-1.23-3.8-3.92Z" fill="#0072bb" fill-rule="evenodd"/><path d="M369.87,106.23a3.34,3.34,0,0,1,3.52-3.29c2.07,0,3,1.14,3.38,3.29ZM381,108.92c.3-4.76-2.24-9.18-7.51-9.18-4.69,0-7.89,3.53-7.89,8.17s3,8.14,7.89,8.14a7,7,0,0,0,7.25-5.21H377a3.53,3.53,0,0,1-3.36,2c-2.36,0-3.68-1.23-3.79-3.92Z" fill="#0072bb" fill-rule="evenodd"/><path d="M398.19,99.53h.06l2.7,7.83h-5.54l2.78-7.83Zm-10.44,16.09h4.76l1.68-4.75h8l1.61,4.75h4.88l-8-21.36h-4.82l-8.11,21.36Z" fill="#0072bb" fill-rule="evenodd"/><path d="M416.62,112c-2.6,0-3.44-2.42-3.44-4.64s1.05-4.39,3.44-4.39c2.75,0,3.62,2.24,3.62,4.76,0,2.21-1.19,4.27-3.62,4.27Zm7.66-11.81h-4v2.06h-.06a4.82,4.82,0,0,0-4.6-2.48c-4.35,0-6.65,3.65-6.65,7.66,0,4.24,2,7.78,6.61,7.78a5.21,5.21,0,0,0,4.64-2.4h.06v2c0,2.22-1.05,3.83-3.41,3.83-1.49,0-2.78-.53-3.17-2.12h-4.22c.21,3.53,3.77,5,6.82,5,7.12,0,8-4.31,8-6.85V100.16Z" fill="#0072bb" fill-rule="evenodd"/><path d="M430.65,106.23a3.35,3.35,0,0,1,3.53-3.29c2.06,0,3,1.14,3.38,3.29Zm11.16,2.69c.3-4.76-2.25-9.18-7.51-9.18-4.7,0-7.89,3.53-7.89,8.17s3,8.14,7.89,8.14a7,7,0,0,0,7.24-5.21H437.8a3.51,3.51,0,0,1-3.35,2c-2.36,0-3.68-1.23-3.8-3.92Z" fill="#0072bb" fill-rule="evenodd"/><path d="M443.66,100.16h4v2.15h.09a5.51,5.51,0,0,1,4.73-2.57c4.51,0,5.65,2.54,5.65,6.37v9.51h-4.25v-8.73c0-2.54-.75-3.8-2.72-3.8-2.3,0-3.29,1.28-3.29,4.43v8.1h-4.25V100.16Z" fill="#0072bb" fill-rule="evenodd"/><path d="M471.27,105.6a2.89,2.89,0,0,0-3.14-2.66c-2.72,0-3.62,2.75-3.62,5s.87,4.88,3.53,4.88a3.28,3.28,0,0,0,3.39-3.14h4.09c-.53,4.1-3.38,6.35-7.45,6.35-4.66,0-7.81-3.3-7.81-7.94,0-4.81,2.88-8.37,7.9-8.37,3.65,0,7,1.91,7.27,5.86Z" fill="#0072bb" fill-rule="evenodd"/><path d="M485,117.57c-.94,2.48-2.4,3.49-5.33,3.49a25,25,0,0,1-2.6-.14v-3.5a22.47,22.47,0,0,0,2.48.15,2,2,0,0,0,1.46-2.91l-5.44-14.5h4.55l3.5,10.59h.06l3.38-10.59h4.4L485,117.57Z" fill="#0072bb" fill-rule="evenodd"/><path d="M217.32,59.64c0,17.53-9.48,26-28.79,26s-28.88-8.42-28.88-25.95V20.84h19.49V55.29c0,6.47,0,14.53,9.48,14.53,9.21,0,9.21-8.06,9.21-14.53V20.84h19.49v38.8Z" fill="#0072bb" fill-rule="evenodd"/><polygon points="229.01 20.84 248.94 20.84 267.37 54.67 267.54 54.67 267.54 20.84 285.96 20.84 285.96 84.08 267.01 84.08 247.61 49.53 247.44 49.53 247.44 84.08 229.01 84.08 229.01 20.84 229.01 20.84" fill="#0072bb" fill-rule="evenodd"/><polygon points="297.93 20.84 317.41 20.84 317.41 42.8 335.66 42.8 335.66 20.84 355.15 20.84 355.15 84.08 335.66 84.08 335.66 59.01 317.41 59.01 317.41 84.08 297.93 84.08 297.93 20.84 297.93 20.84" fill="#0072bb" fill-rule="evenodd"/><path d="M405,44.4c-.36-2.31-2.13-9.3-10.19-9.3-9.13,0-12.05,8.85-12.05,17.36s2.92,17.36,12.05,17.36c6.55,0,9.12-4.61,10.27-10.54h19.14c0,12.75-10.37,26.31-28.88,26.31-20.46,0-32.07-14.44-32.07-33.13,0-19.93,12.58-33.13,32.07-33.13,17.36.09,26.93,9.21,28.61,25.07Z" fill="#0072bb" fill-rule="evenodd"/><path d="M451.87,35.89H461c7.43,0,9.65,2.3,9.65,6.29,0,5.67-5,6.29-8.59,6.29H451.87V35.89ZM432.38,84.08h19.49V62h10.37c7.7,0,8.23,6.29,8.77,12.32a44.91,44.91,0,0,0,1.59,9.74h19.49c-1.78-2.92-1.86-10.45-2.13-13.55-.71-7.89-4-13.73-9.3-15.77,6.46-2.39,9.48-9.3,9.48-15.85,0-12-9.57-18.07-20.64-18.07H432.38V84.08Z" fill="#0072bb" fill-rule="evenodd"/><path d="M665.9,83.1,643.24,56.23l-6,6.81V83.1H629.8V23.36h7.43v30.9l26.43-30.9H673l-24.9,28.39,27,31.35Z" fill="#0072bb"/><path d="M712.56,83.1V54.8c0-7.62-3.85-10-9.67-10a16.72,16.72,0,0,0-12.81,6.71V83.1h-6.72V39.84h6.72v6.27c3-3.58,9-7.35,15.41-7.35,9,0,13.79,4.57,13.79,14V83.1Z" fill="#0072bb"/><path d="M730.21,61.42c0-12.53,8.24-22.66,21.41-22.66S773,48.89,773,61.42s-8.24,22.76-21.4,22.76S730.21,74,730.21,61.42Zm35.74,0c0-8.77-5.11-16.65-14.33-16.65S737.2,52.65,737.2,61.42s5.19,16.75,14.42,16.75S766,70.29,766,61.42Z" fill="#0072bb"/><path d="M821.39,83.1,810.11,48.35,798.82,83.1h-6.71l-13.8-43.26h7l10.57,34.48,11.37-34.48H813l11.37,34.48,10.57-34.48h7L828.11,83.1Z" fill="#0072bb"/><path d="M849.7,83.1V23.36h6.72V83.1Z" fill="#0072bb"/><path d="M867.35,61.42c0-12.53,8.95-22.66,21.31-22.66,13.08,0,20.78,10.21,20.78,23.2v1.7h-35c.54,8.15,6.27,15,15.59,15a18.91,18.91,0,0,0,13.34-5.46l3.23,4.39c-4.3,4.3-10.12,6.63-17.2,6.63C876.57,84.18,867.35,75,867.35,61.42Zm21.22-17.1c-9.22,0-13.79,7.79-14.15,14.42h28.39C902.73,52.29,898.43,44.32,888.57,44.32Z" fill="#0072bb"/><path d="M951.63,83.1V76.65A18.21,18.21,0,0,1,937,84.18c-11.28,0-19.26-8.6-19.26-22.67,0-13.79,7.89-22.75,19.26-22.75a18.08,18.08,0,0,1,14.6,7.62v-23h6.72V83.1Zm0-11.73V51.75a16.24,16.24,0,0,0-13-7c-8.68,0-13.88,7.16-13.88,16.74s5.2,16.66,13.88,16.66A16.09,16.09,0,0,0,951.63,71.37Z" fill="#0072bb"/><path d="M971.7,94.21l3.4-5c3.58,4.3,7.88,5.91,14.06,5.91,7.17,0,13.89-3.49,13.89-13V75.93a18.08,18.08,0,0,1-14.51,7.71c-11.29,0-19.26-8.42-19.26-22.39s7.88-22.49,19.26-22.49a17.93,17.93,0,0,1,14.51,7.62V39.84h6.71v42c0,14.33-10,18.81-20.6,18.81C981.82,100.66,976.8,99.22,971.7,94.21Zm31.35-23.56V51.75a16,16,0,0,0-12.9-7c-8.69,0-13.88,6.89-13.88,16.48s5.19,16.48,13.88,16.48A16,16,0,0,0,1003.05,70.65Z" fill="#0072bb"/><path d="M1020.69,61.42c0-12.53,9-22.66,21.32-22.66,13.08,0,20.78,10.21,20.78,23.2v1.7h-35c.54,8.15,6.27,15,15.58,15a18.92,18.92,0,0,0,13.35-5.46l3.22,4.39c-4.3,4.3-10.12,6.63-17.19,6.63C1029.92,84.18,1020.69,75,1020.69,61.42Zm21.23-17.1c-9.23,0-13.79,7.79-14.15,14.42h28.39C1056.07,52.29,1051.77,44.32,1041.92,44.32Z" fill="#0072bb"/><path d="M1113.76,83.1V58h-28.22V83.1h-12.72V23.36h12.72V46.83h28.22V23.36h12.8V83.1Z" fill="#0072bb"/><path d="M1167.23,83.1V77.64A20.25,20.25,0,0,1,1152,84.18c-9.49,0-14-5.2-14-13.62V39.84h11.38V66.08c0,6,3.13,8,8,8a12.71,12.71,0,0,0,9.85-4.92V39.84h11.38V83.1Z" fill="#0072bb"/><path d="M1189.89,83.1V23.36h11.38v22a16.66,16.66,0,0,1,13.35-6.63c11,0,19.16,8.6,19.16,22.75,0,14.42-8.24,22.67-19.16,22.67a16.79,16.79,0,0,1-13.35-6.63V83.1Zm21.14-9c6.63,0,11-5,11-12.54s-4.39-12.62-11-12.62a12.53,12.53,0,0,0-9.76,5V69.22C1203.15,72,1207.36,74.05,1211,74.05Z" fill="#0072bb"/><line x1="520.79" x2="520.79" y2="118.88" fill="none" stroke="#0072bb" stroke-miterlimit="10" stroke-width="2"/><polygon points="583.14 67.47 592.46 61.98 592.46 51.82 583.14 57.31 583.14 67.47" fill="#0072bb"/><polygon points="567.19 46.16 581.26 54.45 595.33 46.16 581.26 37.87 567.19 46.16" fill="#0072bb"/><path d="M551.38,23.34V83.1h59.76V23.34ZM607,79H555.49V27.46H607Z" fill="#0072bb"/><polygon points="570.06 61.98 579.38 67.46 579.38 57.31 570.06 51.82 570.06 61.98" fill="#0072bb"/><path d="M603.43,31.05H559.09V75.39h44.34ZM596.22,49.6V63.73l-15,8.82-15-8.82V49.6l-5.84-3.44,20.81-12.27,20.81,12.27Z" fill="#0072bb"/></svg>